<svg width="164" height="80" viewBox="0 0 164 80" fill="none" xmlns="http://www.w3.org/2000/svg">
<rect x="48.4678" width="115.418" height="80" rx="8" fill="#4B1B1C"/>
<path d="M75.2514 16.722V18.864L72.0114 27H69.4194L72.6414 18.666H67.4214V14.094H69.7614V16.722H75.2514ZM76.3502 25.056H79.2302C79.9262 25.056 80.4362 24.828 80.7602 24.372C81.0962 23.916 81.2642 23.304 81.2642 22.536V21.186C81.2642 20.418 81.0962 19.806 80.7602 19.35C80.4362 18.894 79.9262 18.666 79.2302 18.666H76.3502V16.722H79.9322C81.2162 16.722 82.1942 17.136 82.8662 17.964C83.5382 18.78 83.8742 19.902 83.8742 21.33V22.392C83.8742 23.82 83.5382 24.948 82.8662 25.776C82.1942 26.592 81.2162 27 79.9322 27H76.3502V25.056ZM96.5561 16.722V18.864L93.3161 27H90.7241L93.9461 18.666H88.7261V14.094H91.0661V16.722H96.5561ZM106.745 16.722C106.733 19.11 106.637 20.916 106.457 22.14C106.289 23.352 105.833 24.378 105.089 25.218C104.345 26.046 103.145 26.622 101.489 26.946L97.6369 27.702L97.2769 25.668L100.139 25.128L98.0689 16.722H100.661L102.479 24.552C103.019 24.288 103.409 23.886 103.649 23.346C103.889 22.806 104.033 22.152 104.081 21.384C104.141 20.616 104.171 19.452 104.171 17.892V16.722H106.745ZM112.206 18.828L111.99 16.722H114.582L114.798 18.828V27H112.206V18.828ZM122.534 22.788L124.91 27H122.3H116.306V25.056H121.202L116.504 16.722H119.114L121.148 20.34L122.624 16.722H125.18L122.534 22.788ZM132.498 16.722C133.458 16.722 134.214 17.01 134.766 17.586C135.33 18.162 135.612 19.032 135.612 20.196V27H133.002V20.07C133.002 19.134 132.6 18.666 131.796 18.666H129.384V27H126.792V17.892V16.722H132.498ZM144.914 16.722V18.864L141.674 27H139.082L142.304 18.666H137.084V14.094H139.424V16.722H144.914ZM70.2466 38.828L70.0306 36.722H72.6226L72.8386 38.828V41.636L72.8206 42.77L70.2466 43.22V38.828ZM78.5408 40.772C78.5408 40.316 78.5828 39.908 78.6668 39.548C78.7628 39.176 78.8888 38.882 79.0448 38.666H74.4368V36.722H82.8788V38.666H81.4748C81.2468 39.182 81.1328 39.884 81.1328 40.772V47H78.5408V40.772ZM84.0846 45.056H86.9646C87.6606 45.056 88.1706 44.828 88.4946 44.372C88.8306 43.916 88.9986 43.304 88.9986 42.536V41.186C88.9986 40.418 88.8306 39.806 88.4946 39.35C88.1706 38.894 87.6606 38.666 86.9646 38.666H84.0846V36.722H87.6666C88.9506 36.722 89.9286 37.136 90.6006 37.964C91.2726 38.78 91.6086 39.902 91.6086 41.33V42.392C91.6086 43.82 91.2726 44.948 90.6006 45.776C89.9286 46.592 88.9506 47 87.6666 47H84.0846V45.056ZM103.732 47L100.348 41.762L98.7465 47H96.2805L98.2785 40.826L98.8365 39.44L97.1625 36.722H99.7725L101.212 39.062L102.508 41.024L102.994 39.386L103.714 36.722H106.18L104.02 43.274L106.504 47H103.732ZM117.038 41.06C117.11 43.172 116.45 44.702 115.058 45.65C113.666 46.586 111.638 47.096 108.974 47.18L107.984 38.666L107.732 36.722H113.258C114.434 36.722 115.346 37.058 115.994 37.73C116.642 38.39 116.984 39.302 117.02 40.466L117.038 41.06ZM111.242 44.876C112.094 44.816 112.754 44.642 113.222 44.354C113.702 44.054 114.032 43.64 114.212 43.112C114.404 42.572 114.488 41.87 114.464 41.006V40.466C114.464 39.914 114.338 39.476 114.086 39.152C113.834 38.828 113.492 38.666 113.06 38.666H110.576L111.242 44.876ZM118.864 45.056H122.5C123.196 45.056 123.736 44.834 124.12 44.39C124.516 43.934 124.714 43.31 124.714 42.518V41.186C124.714 40.43 124.54 39.824 124.192 39.368C123.856 38.9 123.358 38.666 122.698 38.666H121.402L121.078 40.196C121.042 40.352 121.024 40.502 121.024 40.646C121.024 40.946 121.114 41.18 121.294 41.348C121.474 41.504 121.768 41.624 122.176 41.708L121.762 43.328C120.694 43.304 119.92 43.064 119.44 42.608C118.96 42.152 118.72 41.534 118.72 40.754C118.72 40.466 118.744 40.202 118.792 39.962L119.512 36.722H123.31C124.558 36.722 125.536 37.136 126.244 37.964C126.952 38.792 127.306 39.908 127.306 41.312V42.392C127.306 43.832 126.928 44.96 126.172 45.776C125.416 46.592 124.396 47 123.112 47H118.864V45.056ZM129.028 38.828L128.812 36.722H131.404L131.62 38.828V47H129.028V38.828ZM136.998 45.074C137.814 45.002 138.42 44.726 138.816 44.246C139.212 43.766 139.452 42.95 139.536 41.798L139.77 38.666H133.506V36.722H142.56L142.47 38.396L142.272 41.114C142.08 45.014 140.388 46.982 137.196 47.018L136.998 45.074ZM133.362 41.978L133.722 40.736H135.972V50.6H133.362V41.978ZM69.6085 59.98C69.6085 59.104 69.2065 58.666 68.4025 58.666H63.7045V56.722H69.1045C70.0645 56.722 70.8205 56.998 71.3725 57.55C71.9365 58.09 72.2185 58.942 72.2185 60.106V67H69.6085V59.98ZM63.5965 62.086L63.9565 60.88H66.2065V67H63.5965V62.086ZM73.3749 65.542C73.8309 65.494 74.1729 65.404 74.4009 65.272C74.6289 65.14 74.7849 64.96 74.8689 64.732C74.9529 64.492 74.9889 64.156 74.9769 63.724V56.722H80.4309C81.3909 56.722 82.1469 56.998 82.6989 57.55C83.2509 58.09 83.5269 58.942 83.5269 60.106V67H80.9349V59.98C80.9349 59.104 80.5269 58.666 79.7109 58.666H77.5869V63.382C77.5869 64.294 77.4429 65.02 77.1549 65.56C76.8789 66.1 76.4529 66.508 75.8769 66.784C75.3129 67.048 74.5509 67.222 73.5909 67.306L73.3749 65.542ZM85.5747 58.828L85.3587 56.722H87.9507L88.1667 58.828V67H85.5747V58.828ZM96.9649 67L93.5809 61.762L91.9789 67H89.5129L91.5109 60.826L92.0689 59.44L90.3949 56.722H93.0049L94.4449 59.062L95.7409 61.024L96.2269 59.386L96.9469 56.722H99.4129L97.2529 63.274L99.7369 67H96.9649ZM110.526 56.722C111.486 56.722 112.242 57.01 112.794 57.586C113.358 58.162 113.64 59.032 113.64 60.196V67H111.03V60.07C111.03 59.134 110.628 58.666 109.824 58.666H107.412V67H104.82V57.892V56.722H110.526ZM115.651 58.828L115.435 56.722H118.027L118.243 58.828V67H115.651V58.828ZM119.535 65.542C119.991 65.494 120.333 65.404 120.561 65.272C120.789 65.14 120.945 64.96 121.029 64.732C121.113 64.492 121.149 64.156 121.137 63.724V56.722H126.591C127.551 56.722 128.307 56.998 128.859 57.55C129.411 58.09 129.687 58.942 129.687 60.106V67H127.095V59.98C127.095 59.104 126.687 58.666 125.871 58.666H123.747V63.382C123.747 64.294 123.603 65.02 123.315 65.56C123.039 66.1 122.613 66.508 122.037 66.784C121.473 67.048 120.711 67.222 119.751 67.306L119.535 65.542ZM131.591 65.056H135.227C135.923 65.056 136.463 64.834 136.847 64.39C137.243 63.934 137.441 63.31 137.441 62.518V61.186C137.441 60.43 137.267 59.824 136.919 59.368C136.583 58.9 136.085 58.666 135.425 58.666H134.129L133.805 60.196C133.769 60.352 133.751 60.502 133.751 60.646C133.751 60.946 133.841 61.18 134.021 61.348C134.201 61.504 134.495 61.624 134.903 61.708L134.489 63.328C133.421 63.304 132.647 63.064 132.167 62.608C131.687 62.152 131.447 61.534 131.447 60.754C131.447 60.466 131.471 60.202 131.519 59.962L132.239 56.722H136.037C137.285 56.722 138.263 57.136 138.971 57.964C139.679 58.792 140.033 59.908 140.033 61.312V62.392C140.033 63.832 139.655 64.96 138.899 65.776C138.143 66.592 137.123 67 135.839 67H131.591V65.056ZM149.044 56.722V58.864L145.804 67H143.212L146.434 58.666H141.214V54.094H143.554V56.722H149.044Z" fill="white"/>
<path d="M16.3518 10.5605C11.6946 14.0596 4.27954 19.3085 0 22.9002C5.25661 26.8723 11.0373 31.403 16.3859 35.16L16.4025 28.8857C26.9205 29.4409 40.5252 30.1571 50.9475 31.2574C50.9666 28.334 50.8265 22.3284 51.084 19.6316L50.7476 18.6761C51.0277 18.3182 51.0197 17.8201 50.7282 17.4707C50.7837 16.3449 50.8285 16.4055 50.3929 15.3746C48.8185 14.5893 20.6012 16.7812 16.4018 16.9669L16.3518 10.5605Z" fill="#4B1B1C"/>
</svg>
