<svg width="22" height="22" viewBox="0 0 22 22" fill="none" xmlns="http://www.w3.org/2000/svg">
<g clip-path="url(#clip0_133_378)">
<path d="M10.119 0H11.533C11.7708 0.0724291 12.0967 0.0449432 12.3459 0.0891241C12.7829 0.166599 13.2299 0.238953 13.6588 0.352677C16.4146 1.09512 18.7628 2.90121 20.1876 5.3741C20.7836 6.42442 21.1653 7.3892 21.3934 8.5696C21.4529 8.87704 21.5141 9.61986 21.6104 9.85793V11.6034C21.454 12.0989 21.4367 12.9332 21.2607 13.5381C20.3877 16.537 18.4918 18.9199 15.6898 20.345C13.214 21.6042 10.2643 21.8043 7.60961 20.9925C7.16001 20.855 6.06215 20.4194 5.70982 20.1777C5.33366 20.2926 5.06353 20.3469 4.69122 20.4413L3.1916 20.8356L0.822753 21.459C0.571208 21.5228 0.247396 21.6526 0 21.6583V21.566C0.019989 21.5401 0.839851 18.5817 0.919592 18.2791L1.27655 16.9539C1.361 16.6472 1.40626 16.4392 1.51994 16.139C1.4603 16.0413 1.41239 15.9323 1.3593 15.8352C-2.05365 9.59105 1.61871 1.56529 8.64642 0.225955C8.84043 0.188978 9.03961 0.130824 9.23129 0.100108C9.49631 0.0576424 9.84607 0.0712217 10.11 0.00241274L10.119 0ZM3.48199 15.8426C3.45804 15.9346 3.4332 16.0272 3.41085 16.1195C3.16767 17.124 2.88407 18.1228 2.59322 19.1149C3.17596 18.9241 3.80728 18.7838 4.40058 18.6296C4.7382 18.5372 5.07801 18.426 5.42215 18.3617C5.71693 18.3067 5.94559 18.1932 6.23039 18.365C7.33933 19.0339 8.38946 19.344 9.64957 19.602C9.91048 19.6024 10.1769 19.6386 10.4352 19.6525C12.3868 19.7578 14.3041 19.156 15.8969 18.0347C16.3133 17.7416 16.753 17.4172 17.1147 17.0576C18.8039 15.3753 19.756 13.0911 19.7616 10.707C19.7605 8.33737 18.81 6.06698 17.1226 4.40336C15.4438 2.74059 13.1753 1.80959 10.8124 1.81363C10.7197 1.81387 10.6271 1.8174 10.5346 1.82419C9.94631 1.86978 9.23243 1.94711 8.66786 2.08908C7.2718 2.45389 5.98216 3.14458 4.90479 4.10445C4.39226 4.55966 3.88159 5.13332 3.49372 5.69971C2.33858 7.38534 1.79304 9.4146 1.94726 11.4522C2.03267 12.5465 2.32674 13.5253 2.76959 14.5265C2.96862 14.9765 3.28959 15.3972 3.48199 15.8426Z" fill="white"/>
<path d="M6.9177 5.78826C7.98606 5.70218 8.0227 5.8275 8.38995 6.76647C8.62469 7.36666 8.89209 7.87959 9.07515 8.52151C8.94164 8.99244 8.73388 9.19329 8.42156 9.55545C8.28339 9.71565 8.10306 9.87606 8.19811 10.0933C8.34886 10.4378 8.57969 10.7047 8.79945 10.9994C9.49091 11.9269 10.3797 12.6438 11.4255 13.1361C11.5379 13.1891 12.0939 13.5002 12.2022 13.4517C12.5069 13.315 13.2536 12.1352 13.4827 12.0596C13.8738 11.9304 15.142 12.7154 15.5504 12.8507C15.7056 12.9057 16.2454 13.2008 16.2954 13.3624C16.4001 13.7001 16.186 14.4645 16.0414 14.7672C15.971 14.8479 15.9126 14.9371 15.8371 15.0143C15.4692 15.3905 14.9424 15.7078 14.4271 15.8239C13.5139 16.0298 12.695 15.8001 11.8426 15.4937C11.1481 15.244 10.5028 14.9435 9.87851 14.5482C8.28166 13.5368 5.8853 10.9899 5.47886 9.15505C5.29072 8.30572 5.36638 7.38106 5.84522 6.63531C6.02344 6.35779 6.29902 5.99635 6.61387 5.8654C6.70757 5.82644 6.81853 5.80973 6.9177 5.78826Z" fill="white"/>
</g>
<defs>
<clipPath id="clip0_133_378">
<rect width="21.6104" height="21.6948" fill="white"/>
</clipPath>
</defs>
</svg>
