<svg width="113" height="71" viewBox="0 0 113 71" fill="none" xmlns="http://www.w3.org/2000/svg">
<path d="M5.6039 68.8468L5.58036 64.848C5.57643 64.0278 6.19647 63.341 7.0088 63.2586C9.13185 63.0428 10.886 62.8544 12.8953 62.4384C17.8634 61.4103 18.7307 55.9202 18.8563 51.5132C18.8837 50.6224 18.1656 49.8885 17.2748 49.8846L1.58149 49.814C0.706375 49.81 0 49.0958 0 48.2207L0.0313944 37.9233C0.0353187 37.0443 0.753466 36.334 1.62859 36.3379L6.4437 36.3615C7.31098 36.3654 8.01735 37.0678 8.0252 37.9351L8.05659 41.102C8.06444 41.9693 8.77082 42.6717 9.63809 42.6757L25.2882 42.7424C26.1516 42.7424 26.8501 43.433 26.8697 44.2964C27.0777 54.1739 27.4819 66.818 15.6423 69.3727C12.8717 69.9692 10.474 70.2086 7.2992 70.4244C6.38484 70.4872 5.6039 69.7651 5.59998 68.8468H5.6039Z" fill="#96342B"/>
<path d="M63.4367 68.5708C63.4249 65.8394 63.4288 63.2572 63.264 60.628C62.8833 54.6002 57.9937 49.8401 51.9542 49.6831L46.727 49.5457C45.8558 49.5222 45.169 48.804 45.1808 47.9368L45.2358 44.0439C45.2475 43.1805 45.95 42.4859 46.8133 42.4781C50.5336 42.4467 53.9359 42.431 57.456 42.9215C64.6336 43.9183 69.8372 49.1023 70.8536 56.2563C71.4383 60.3611 71.4187 64.309 71.3716 68.5354C71.3638 69.3988 70.6613 70.1012 69.798 70.1091L65.0378 70.1562C64.1587 70.164 63.4367 69.4537 63.4327 68.5708H63.4367Z" fill="#96342B"/>
<path d="M33.6115 55.8761L33.4742 51.1473C33.4506 50.3586 32.8541 49.7071 32.0693 49.6169C31.2569 49.5227 30.6487 48.8241 30.6644 48.004L30.7546 44.0247C30.7742 43.1614 31.4806 42.4707 32.3479 42.4707L39.859 42.4864C40.7341 42.4864 41.4444 43.1967 41.4444 44.0718L41.4562 51.1473C41.4562 52.5719 41.0677 53.9885 40.2318 55.1462C38.1833 57.9835 35.2322 57.4184 35.2322 57.4184C34.3611 57.4341 33.639 56.7473 33.6154 55.8761H33.6115Z" fill="#96342B"/>
<g clip-path="url(#clip0_143_406)">
<path d="M91.3853 0.599701C91.3472 0.144694 91.8466 -0.157938 92.2318 0.0875539C96.0179 2.50438 109.865 11.4924 110.671 14.0743C111.605 17.0688 110.665 23.9574 110.665 23.9574C110.665 23.9574 90.3419 15.0668 91.2837 11.8542C92.0223 9.3316 91.6011 3.13928 91.3853 0.599701Z" fill="#96342B"/>
<path d="M92.4456 39.8832L88.2511 37.9256L75.2485 28.4233C74.9056 28.144 74.9945 27.6001 75.4093 27.4456C79.0832 26.0679 92.4922 21.0755 95.2455 20.5168C98.4454 19.8692 109.854 23.2595 110.229 24.7938C110.485 25.8393 102.437 34.9014 96.6719 38.097C94.4011 39.3562 92.4456 39.8832 92.4456 39.8832Z" fill="#96342B"/>
<path d="M87.8005 38.3281C87.8005 38.3281 74.4952 40.1122 74.9375 41.0963C75.382 42.0803 92.2892 43.3522 92.2892 43.3522C92.2892 43.3522 109.309 41.7819 109.975 41.4391C110.64 41.0963 97.1144 38.7979 97.1144 38.7979L92.4648 40.8402L87.8005 38.3281Z" fill="#96342B"/>
<path d="M109.594 42.2195C110.102 42.1708 110.564 42.5094 110.669 43.0068C111.433 46.6024 114.123 60.3351 111.907 65.827C109.717 71.2511 97.7536 70.5315 94.323 70.2077C93.8024 70.159 93.4088 69.721 93.4151 69.1982C93.4744 64.5656 93.7347 43.8533 93.559 43.8131C93.3834 43.7729 106.088 42.5539 109.592 42.2195H109.594Z" fill="#96342B"/>
</g>
<defs>
<clipPath id="clip0_143_406">
<rect width="37.8397" height="70.4288" fill="white" transform="translate(74.9268)"/>
</clipPath>
</defs>
</svg>
