<svg width="70" height="70" viewBox="0 0 70 70" fill="none" xmlns="http://www.w3.org/2000/svg">
<path d="M32.6267 1.60974C32.5899 1.17083 33.0717 0.878897 33.4432 1.11571C37.0954 3.44707 50.4528 12.1172 51.2306 14.6078C52.1309 17.4965 51.2245 24.1415 51.2245 24.1415C51.2245 24.1415 31.6202 15.5652 32.5287 12.4663C33.2411 10.0328 32.8349 4.05951 32.6267 1.60974Z" fill="#96342B"/>
<path d="M33.6493 39.504L29.6031 37.6156L17.0603 28.4494C16.7296 28.18 16.8153 27.6553 17.2155 27.5063C20.7595 26.1773 33.6942 21.3615 36.3502 20.8225C39.4369 20.1978 50.4424 23.4682 50.8038 24.9483C51.0508 25.9568 43.2871 34.6984 37.7261 37.781C35.5356 38.9957 33.6493 39.504 33.6493 39.504Z" fill="#96342B"/>
<path d="M29.1685 38.0039C29.1685 38.0039 16.3337 39.7249 16.7604 40.6741C17.1891 41.6234 33.4984 42.8504 33.4984 42.8504C33.4984 42.8504 49.9159 41.3356 50.559 41.0049C51.2 40.6741 38.153 38.4571 38.153 38.4571L33.6679 40.4271L29.1685 38.0039Z" fill="#96342B"/>
<path d="M50.1911 41.7584C50.6811 41.7114 51.1261 42.0381 51.2282 42.5178C51.9651 45.9863 54.5598 59.2334 52.4224 64.531C50.3095 69.7633 38.7691 69.0692 35.4598 68.7568C34.9576 68.7099 34.5779 68.2873 34.5841 67.7831C34.6412 63.3143 34.8923 43.3344 34.7229 43.2956C34.5534 43.2568 46.8084 42.0809 50.1891 41.7584H50.1911Z" fill="#96342B"/>
</svg>
